<svg width="14" height="14" viewBox="0 0 14 14" fill="none" xmlns="http://www.w3.org/2000/svg">
<path d="M1.40039 3.15005H12.6004M5.60039 10.15V5.95005M8.40039 10.15V5.95005M9.80039 12.95H4.20039C3.42719 12.95 2.80039 12.3232 2.80039 11.55V3.85005C2.80039 3.46345 3.11379 3.15005 3.50039 3.15005H10.5004C10.887 3.15005 11.2004 3.46345 11.2004 3.85005V11.5501C11.2004 12.3232 10.5736 12.95 9.80039 12.95ZM5.60039 3.15005H8.40039C8.78699 3.15005 9.10039 2.83665 9.10039 2.45005V1.75005C9.10039 1.36345 8.78699 1.05005 8.40039 1.05005H5.60039C5.21379 1.05005 4.90039 1.36345 4.90039 1.75005V2.45005C4.90039 2.83665 5.21379 3.15005 5.60039 3.15005Z" stroke="#FF4D4F" stroke-width="2" stroke-linecap="round" stroke-linejoin="round"/>
</svg>
